<mxfile host="www.draw.io" modified="2019-12-18T14:40:28.626Z" agent="Mozilla/5.0 (Windows NT 10.0; Win64; x64) AppleWebKit/537.36 (KHTML, like Gecko) Chrome/79.0.3945.79 Safari/537.36" etag="7NVf8vMvOQlLqmKCtWpt" version="12.4.3" type="github" pages="1">
  <diagram id="EXGFNRhHtp1n-scR-MxF" name="Page-1">
    <mxGraphModel dx="5498" dy="3643" grid="1" gridSize="10" guides="1" tooltips="1" connect="1" arrows="1" fold="1" page="1" pageScale="1" pageWidth="827" pageHeight="1169" math="0" shadow="0">
      <root>
        <mxCell id="0"/>
        <mxCell id="1" parent="0"/>
        <mxCell id="ogHlrttiE4OIKrvn-74Q-9" value="" style="shape=image;verticalLabelPosition=bottom;labelBackgroundColor=#ffffff;verticalAlign=top;aspect=fixed;imageAspect=0;image=data:image/png,iVBORw0KGgoAAAANSUhEUgAAANEAAADMCAYAAADtckaqAAAABHNCSVQICAgIfAhkiAAAAAFzUkdCAK7OHOkAAAAEZ0FNQQAAsY8L/GEFAAAACXBIWXMAAA9hAAAPYQGoP6dpAAAAOXRFWHRTb2Z0d2FyZQBtYXRwbG90bGliIHZlcnNpb24gMi4yLjMsIGh0dHA6Ly9tYXRwbG90bGliLm9yZy8jFEQFAAAAIXRFWHRDcmVhdGlvbiBUaW1lADIwMTk6MTI6MTggMjI6MDU6MTOmgjJLAAAJAklEQVR4Xu3dC3LbuBZF0ahnmwzIGa5bYAwbgvDlAUh89qpiPceWRBK8BxeU7H6Pz6dfAE777+t/AZxEiAARIQJEhAgQESJARIgAESECRIQIEBEiQESIABEhAkSECBARIkBEiAARIQJEhAgQESJARIgAESECRIQIEBEiQESIABEhAkSECBARIkBEiAARIQJEhAgQESJARIgAESECRIQIEBEiQESIABEhAkSECBARIkDE/3v4wB5/H19f/fj8zeUaDZ1oUKEAGbHv4z6ECBARIkBEiAARIQJEW4aIm3O0tM1b3KngjPa28cM5VHN1zLGbY/S/Pyp7vLsgRE+jhih0ZVI/u1tojHcI0xQhigWg5gK1ClGLY0nJdZve3cic35lzaTG+vce2l+HviVIXJ8cU3LFlXsP83D42RTmWEiUBcb+fO94axxh8nZ/9uvf5uq7cV2tTv7FgCz+2ffuTmcmcn4dex25XyXWY1h2otoDfxibz/COQ/nO8bWZLvztnis1uKaWP6+lsIfUuQLfQ7famYpJa0dQhcos/tJXw19uh17FbSrTACrjPy+3Hco/p7H6NbBf6eP+53be7pYQe728z2+ZzIhMWu7n/bk0JU6yYut4vZLrEMU7Ph6xS8D0M++7cdyEGZkKrRwhSUsVsjyUWIDvKJa9hlD7OOPYZ6hiB8QkeX+MxNsde+7zkRPEV9FEDPH4nGmg9XVIYsdnaFG8sYLJICGxh2n2H9t+jMM8E78xzRjFcJ/Iv9KizT63v80rM+i8TRsHj7NiUzOJGyVie6SK9jV4Tw3Qif6Y0A7VKgIwe53OMWSpAxjOMNfsesSP4x++HKjsGnV3eiaInXDljzip1wd0CThaGv8RtfE8zsu8ARc75jvO9tBPlZgx/xkGYHacdxyt3vnd0pWGWc7sVg8+fQWMz6mqd5YzRauXS5Vy2Ey1eIHYp0nPEjzFefGlc0m2urKVxOtEmAerNjKMbnKv2e6VcrVxdS8O+O7eqqzrDih3IGLFOhgmRtWKQdpgcrjDqOA71YWtokGafUd1zuuNc7t5/C35d+Odh7pHuvB3gNxY6s+dz13nMHqIZ6mG4EFn+4BmzFcEoBXx3kM+YITzWcPdElhk0f+BCwRrVKAFyzTJ+MwXIGLYT+XIDe/e62GePVxnd1Ochtec6WqhD12u28FjThMh6GegBf2esZbG2DJHRItiK1PnM/AHxsMu5mFEHOFkgg/Fn/JHMFiBjuk7kaj1T11L3ny3mgr8p8qWu5uzjNarpOpGVm/lzP7+aCYy/9XDVfmrNdr1qLNuJzExtzyz0uNTMF3td/zm5/aeUjHrq9ZPHH3ta5T1k6ThYqXE+jmnRv3uathOVOGbiSCHUfr+aVzAmNO6myBXcmX355107DqnxHKUb9rJkiEyRqYUacoTS2VLsMdQUsu94DRMY09VMZ7X/rlR0DM/XLz23M45jOHHsM5g6RLaovi/OV7FZucJxi6ZX8cyiJui14/by2s41ert+k1qmE11xIY7Z1N0mu/i543XPrbfZg+Oa+o0Fn50R3TNKre1DF7L28ZZ5Xq/CCJ1Xb73GzZzLOhX3z1L3RPbi5JYXPfQK0EruuC5XWKoTGalZ+5gtn+vx0jOufXwvd3QiV83+j8d+xH8v7u6x7GG5EBmxC1Z7IUe58HcfR+n+U48bZSx7WPpzIp+9gPaCpqx80dHWViHCPVafkAgRLrFyR18yRDXLNvS1wzWgE6GJne8hlw0R3QhXoROhm12603Yh2nG50dvOSzlj2040yzJv9gLdIVhLh8hewNrA7D6ztjDLJNXC8p2IIKC3LZdzZzsUyuzWybe9J0IbLH03ChFdB71sESLui66305hvtZyjG7UVWsrtOMbcE6GZXe+PCBEg2iZE/uxo/80SD6rtOhGh6WPXpZyxVYh2vMCqWDh2Do1vy3sivwDoTprdA8UbC6hGF3pFiADRdiFiCdcWXYlOBMi2DBHdqA260D90IkC0fYjoSnXoPu/oRDiFMP3YNkSxDkRxxDE2YXQiVCNMr7YOkV8EflcCStCJABEhwiks5X5sHyKKoYy71GXMXtGJABEhemJmhYIQASJCFEBnimNs3hEi3wcfFqHO4/Pp6+ttPf7Gg/P5+97hueu3A2Jjcvd4jIhOhCqpCWdXhAgQESK8odvUIUR4w31PHUIEiAjRU2zmZUZGCd7i9oz2B2d3H8+x/48HE0oCIfIQolejjceIWM4BIkIEiAgRICJEgIgQeewNtL2hBnIIESDiLe6Aq97WLflzg9yxmNfo+RkOb3HnEaKAKwon9UueLyEyj/vz+XIspc9VEaAyLOcGZYLyHZaPf1+nwoP70IkCzszAsQIPdQYpDM+ulPoTdjrR9ehEDdSE4ihME4SzMv8NiNSx0Mn6oBMF1M7AyeIMBMa8breCdvaX20+ua9GJytCJLmSKUS3ImuWaDQH6IkSd2eD44TFhsFvo3ympx8T2h34IkajFbF8SHJ8bOPv12+sI908oxz2RJ1ZYboG+Bafju2XmeJTXSAbF+/zJxz1RGTpRIVOMpqjcANllkxqUlJ6vbcQ66fH95+RAgPLoRB5l5h5Vqru+heiiz6BWQogcyQA9rV5EtvvEEKIwlnOO3YuE6fQcQlQhdv+AvRGiSisHiUniHO6JKvhF5o+cuaeabUn4FhzuiaoRokrB2TpQeLMUXGmICFAcIRIcBTjwzJ17t9H/ZVWcwz3R5kx4CJCGTiTIzvRPoW6U+vCzpd0/97oKIRIlCzWwXEo9vrSoS0NIiK7Bcu4i5v4p+KZEpVQwzM/sflrsC2UIkSg2m5vv2/sNd0vxQxDaSpTsC+0QogaOwHyFyf26mrP8O8sNT+o4Th8j3nBPdLHUcqyksLnPGQ+dCBDRiW5kusqZzhHrRnShexAiQMRyDhARIkBEiAARIQJEhAgQESJARIgAESECRIQIEBEiQESIABEhAkSECBARIkBEiAARIQJEhAgQESJARIgAESECRIQIEBEiQESIABEhAkSECBARIkBEiAARIQJEhAgQESJARIgAESECRIQIEBEiQESIABEhAkSECJD8+vU/K1F49vz8BuwAAAAASUVORK5CYII=;" parent="1" vertex="1">
          <mxGeometry x="-0.4299999999999997" y="-1.0000000000000013" width="789.02" height="770.14" as="geometry"/>
        </mxCell>
        <mxCell id="ogHlrttiE4OIKrvn-74Q-3" value="" style="shape=ellipse;fillColor=#0066CC;strokeColor=none;html=1" parent="1" vertex="1">
          <mxGeometry x="100" y="210" width="30" height="30" as="geometry"/>
        </mxCell>
        <mxCell id="ogHlrttiE4OIKrvn-74Q-12" value="" style="shape=ellipse;fillColor=#0066CC;strokeColor=none;html=1" parent="1" vertex="1">
          <mxGeometry x="150" y="180" width="30" height="30" as="geometry"/>
        </mxCell>
        <mxCell id="ogHlrttiE4OIKrvn-74Q-13" value="" style="shape=ellipse;fillColor=#0066CC;strokeColor=none;html=1" parent="1" vertex="1">
          <mxGeometry x="220" y="170" width="30" height="30" as="geometry"/>
        </mxCell>
        <mxCell id="ogHlrttiE4OIKrvn-74Q-14" value="" style="shape=ellipse;fillColor=#0066CC;strokeColor=none;html=1" parent="1" vertex="1">
          <mxGeometry x="170" y="260" width="30" height="30" as="geometry"/>
        </mxCell>
        <mxCell id="ogHlrttiE4OIKrvn-74Q-15" value="" style="shape=ellipse;fillColor=#0066CC;strokeColor=none;html=1" parent="1" vertex="1">
          <mxGeometry x="210" y="270" width="30" height="30" as="geometry"/>
        </mxCell>
        <mxCell id="ogHlrttiE4OIKrvn-74Q-16" value="" style="shape=ellipse;fillColor=#0066CC;strokeColor=none;html=1" parent="1" vertex="1">
          <mxGeometry x="260" y="270" width="30" height="30" as="geometry"/>
        </mxCell>
        <mxCell id="ogHlrttiE4OIKrvn-74Q-17" value="" style="shape=ellipse;fillColor=#0066CC;strokeColor=none;html=1" parent="1" vertex="1">
          <mxGeometry x="280" y="180" width="30" height="30" as="geometry"/>
        </mxCell>
        <mxCell id="ogHlrttiE4OIKrvn-74Q-18" value="" style="shape=ellipse;fillColor=#0066CC;strokeColor=none;html=1" parent="1" vertex="1">
          <mxGeometry x="340" y="200" width="30" height="30" as="geometry"/>
        </mxCell>
        <mxCell id="ogHlrttiE4OIKrvn-74Q-19" value="" style="shape=ellipse;fillColor=#0066CC;strokeColor=none;html=1" parent="1" vertex="1">
          <mxGeometry x="379.08000000000004" y="140" width="30" height="30" as="geometry"/>
        </mxCell>
        <mxCell id="ogHlrttiE4OIKrvn-74Q-20" value="" style="shape=ellipse;fillColor=#0066CC;strokeColor=none;html=1" parent="1" vertex="1">
          <mxGeometry x="300" y="260" width="30" height="30" as="geometry"/>
        </mxCell>
        <mxCell id="ogHlrttiE4OIKrvn-74Q-21" value="" style="shape=ellipse;fillColor=#0066CC;strokeColor=none;html=1" parent="1" vertex="1">
          <mxGeometry x="380" y="200" width="30" height="30" as="geometry"/>
        </mxCell>
        <mxCell id="ogHlrttiE4OIKrvn-74Q-22" value="" style="shape=ellipse;fillColor=#0066CC;strokeColor=none;html=1" parent="1" vertex="1">
          <mxGeometry x="380" y="250" width="30" height="30" as="geometry"/>
        </mxCell>
        <mxCell id="ogHlrttiE4OIKrvn-74Q-23" value="" style="shape=ellipse;fillColor=#0066CC;strokeColor=none;html=1" parent="1" vertex="1">
          <mxGeometry x="420" y="200" width="30" height="30" as="geometry"/>
        </mxCell>
        <mxCell id="ogHlrttiE4OIKrvn-74Q-24" value="" style="shape=ellipse;fillColor=#0066CC;strokeColor=none;html=1" parent="1" vertex="1">
          <mxGeometry x="480" y="180" width="30" height="30" as="geometry"/>
        </mxCell>
        <mxCell id="ogHlrttiE4OIKrvn-74Q-25" value="" style="shape=ellipse;fillColor=#0066CC;strokeColor=none;html=1" parent="1" vertex="1">
          <mxGeometry x="550" y="170" width="30" height="30" as="geometry"/>
        </mxCell>
        <mxCell id="ogHlrttiE4OIKrvn-74Q-26" value="" style="shape=ellipse;fillColor=#0066CC;strokeColor=none;html=1" parent="1" vertex="1">
          <mxGeometry x="610" y="180" width="30" height="30" as="geometry"/>
        </mxCell>
        <mxCell id="ogHlrttiE4OIKrvn-74Q-27" value="" style="shape=ellipse;fillColor=#0066CC;strokeColor=none;html=1" parent="1" vertex="1">
          <mxGeometry x="650" y="210" width="30" height="30" as="geometry"/>
        </mxCell>
        <mxCell id="ogHlrttiE4OIKrvn-74Q-28" value="" style="shape=ellipse;fillColor=#0066CC;strokeColor=none;html=1" parent="1" vertex="1">
          <mxGeometry x="460" y="260" width="30" height="30" as="geometry"/>
        </mxCell>
        <mxCell id="ogHlrttiE4OIKrvn-74Q-29" value="" style="shape=ellipse;fillColor=#0066CC;strokeColor=none;html=1" parent="1" vertex="1">
          <mxGeometry x="500" y="270" width="30" height="30" as="geometry"/>
        </mxCell>
        <mxCell id="ogHlrttiE4OIKrvn-74Q-30" value="" style="shape=ellipse;fillColor=#0066CC;strokeColor=none;html=1" parent="1" vertex="1">
          <mxGeometry x="550" y="270" width="30" height="30" as="geometry"/>
        </mxCell>
        <mxCell id="ogHlrttiE4OIKrvn-74Q-31" value="" style="shape=ellipse;fillColor=#0066CC;strokeColor=none;html=1" parent="1" vertex="1">
          <mxGeometry x="590" y="260" width="30" height="30" as="geometry"/>
        </mxCell>
        <mxCell id="ogHlrttiE4OIKrvn-74Q-32" value="" style="shape=ellipse;fillColor=#0066CC;strokeColor=none;html=1" parent="1" vertex="1">
          <mxGeometry x="240" y="460" width="30" height="30" as="geometry"/>
        </mxCell>
        <mxCell id="ogHlrttiE4OIKrvn-74Q-33" value="" style="shape=ellipse;fillColor=#0066CC;strokeColor=none;html=1" parent="1" vertex="1">
          <mxGeometry x="500" y="460" width="30" height="30" as="geometry"/>
        </mxCell>
        <mxCell id="ogHlrttiE4OIKrvn-74Q-34" value="" style="shape=ellipse;fillColor=#0066CC;strokeColor=none;html=1" parent="1" vertex="1">
          <mxGeometry x="250" y="550" width="30" height="30" as="geometry"/>
        </mxCell>
        <mxCell id="ogHlrttiE4OIKrvn-74Q-35" value="" style="shape=ellipse;fillColor=#0066CC;strokeColor=none;html=1" parent="1" vertex="1">
          <mxGeometry x="500" y="560" width="30" height="30" as="geometry"/>
        </mxCell>
        <mxCell id="ogHlrttiE4OIKrvn-74Q-36" value="" style="shape=ellipse;fillColor=#0066CC;strokeColor=none;html=1" parent="1" vertex="1">
          <mxGeometry x="300" y="530" width="30" height="30" as="geometry"/>
        </mxCell>
        <mxCell id="ogHlrttiE4OIKrvn-74Q-37" value="" style="shape=ellipse;fillColor=#0066CC;strokeColor=none;html=1" parent="1" vertex="1">
          <mxGeometry x="349.08" y="520" width="30" height="30" as="geometry"/>
        </mxCell>
        <mxCell id="ogHlrttiE4OIKrvn-74Q-38" value="" style="shape=ellipse;fillColor=#0066CC;strokeColor=none;html=1" parent="1" vertex="1">
          <mxGeometry x="379.08" y="530" width="30" height="30" as="geometry"/>
        </mxCell>
        <mxCell id="ogHlrttiE4OIKrvn-74Q-39" value="" style="shape=ellipse;fillColor=#0066CC;strokeColor=none;html=1" parent="1" vertex="1">
          <mxGeometry x="409.08" y="520" width="30" height="30" as="geometry"/>
        </mxCell>
        <mxCell id="ogHlrttiE4OIKrvn-74Q-40" value="" style="shape=ellipse;fillColor=#0066CC;strokeColor=none;html=1" parent="1" vertex="1">
          <mxGeometry x="450" y="540" width="30" height="30" as="geometry"/>
        </mxCell>
        <mxCell id="ogHlrttiE4OIKrvn-74Q-41" value="" style="shape=ellipse;fillColor=#0066CC;strokeColor=none;html=1" parent="1" vertex="1">
          <mxGeometry x="450" y="590" width="30" height="30" as="geometry"/>
        </mxCell>
        <mxCell id="ogHlrttiE4OIKrvn-74Q-42" value="" style="shape=ellipse;fillColor=#0066CC;strokeColor=none;html=1" parent="1" vertex="1">
          <mxGeometry x="409.08" y="600" width="30" height="30" as="geometry"/>
        </mxCell>
        <mxCell id="ogHlrttiE4OIKrvn-74Q-43" value="" style="shape=ellipse;fillColor=#0066CC;strokeColor=none;html=1" parent="1" vertex="1">
          <mxGeometry x="340" y="600" width="30" height="30" as="geometry"/>
        </mxCell>
        <mxCell id="ogHlrttiE4OIKrvn-74Q-44" value="" style="shape=ellipse;fillColor=#0066CC;strokeColor=none;html=1" parent="1" vertex="1">
          <mxGeometry x="300" y="580" width="30" height="30" as="geometry"/>
        </mxCell>
        <mxCell id="ogHlrttiE4OIKrvn-74Q-46" value="HAPPY" style="text;html=1;strokeColor=none;fillColor=none;align=center;verticalAlign=middle;whiteSpace=wrap;rounded=0;fontSize=53;" parent="1" vertex="1">
          <mxGeometry x="-580" y="270" width="510" height="120" as="geometry"/>
        </mxCell>
        <mxCell id="ogHlrttiE4OIKrvn-74Q-49" value="" style="shape=image;verticalLabelPosition=bottom;labelBackgroundColor=#ffffff;verticalAlign=top;aspect=fixed;imageAspect=0;image=data:image/png,iVBORw0KGgoAAAANSUhEUgAAAQEAAADMCAYAAABz7RYjAAAABHNCSVQICAgIfAhkiAAAAAFzUkdCAK7OHOkAAAAEZ0FNQQAAsY8L/GEFAAAACXBIWXMAAA9hAAAPYQGoP6dpAAAAOXRFWHRTb2Z0d2FyZQBtYXRwbG90bGliIHZlcnNpb24gMi4yLjMsIGh0dHA6Ly9tYXRwbG90bGliLm9yZy8jFEQFAAAAIXRFWHRDcmVhdGlvbiBUaW1lADIwMTk6MTI6MTggMjI6MDU6MTOmgjJLAAAJQElEQVR4Xu3djZKjKhSF0c5925kHmnncvsEJKWLzc1RAYH+rypruijGKhy2SpOfx/fQFQNZ/r38BiCIEAHGEACCOEADEEQKAOEIAEEcIAOIIAUAcIQCIIwQAcYQAII4QAMQRAoA4QgAQRwgA4ggBQBwhAIgjBABxhAAgjhAAxBECgDhCABBHCADiCAFAHCEAiCMEAHGEACCOEADEEQLiHn8fr5+giv+VWFSq83//ohzUMBIQxNUfIUIAEEcI4AOjBD2EAD4wJ6CHEADE8e5AJTPNtj/crv5JDPt/f3+NXBGunRmt1EUIVJC7jx6tYLcAeHFnPuxU+8dGMVPAzogQqKBWCLQudksnHzEIrrYvIZJHCDxdLZIaIVBjGyW+g+fOeBgCTo3quLN9e7Tr7OQnBnNFEnKdI7XkxNaPLS2Fr1Hq1O7xcJ2r+5Zr39hjfl/fS+H8/Fh/t6CMdwcyViums1f1lscftnH0dX5ztW6NEMgJZtD9FTK25MTWjy05ZzthsmMZWParhbBNLPsQWz9cUEYIZLh7Rksx9bi3vNKhndQxHLkdOsryHN++lnZGG9ITg1uRpt4vf+o5cZTrjG4/Uh3Kn73S80NH1vUsz4nuY6Z9naNt7PbjyHNy+z36ZyJ6kR0JnLmytVQq7NSV0h3H3ceS2ocWHexoaJTWH60O7iA3Etif9NmP/n08uSvufnLtyLqe4TmzteVqtXDWciMBN/yLLs8THp50d8JXOOkjHMesbbnf77A+XM2oWCoErCduxoK9whf7vuhj9uv6RYW/aIQ/W+tqVlJzAmoFDZt3XRQmMVclEwKqnT82MXZ0ci2n5rZwj6UmBnPDtpWLdT/X0Yt/3VUqqDTsX7WGZEYCYUdZyV0BoGbli4jUnIDrMKuGAQFw3sp1YbFUCFjTepUTfvdx+OBR7kAr4MNCkx59eBx3H4Pfl5naMhZc4f67+QGVSU/J7w6sEAQjdbzZQmCF818TXyAKzFjEV/Y5Nht+5uo3SwjQ+eOkJgb39kWwL5IRtQwAp/Q2WYzfj5HbjwBIkx4JhEpFMso9ot/Pq2ct19nPHmetfTsjeTy7L0RR7T8RAjsfYZD5GGnPQPABdLWTvY/N8PHYq7cFPUMzF2izfsOxJ+nbgRhXLKMUjCtuX+Dbvwc/2+46Zbi8pb4u7D0fTz43x+3fcwn32f+cY1nHsa63RwDkMRLIyBVdeJWzrufE1o1dMc2vfaBfhGfasn3rtv12r7aD93F8hfVyj3v718YnRgIJpeKyFN9e6jlHt2W9QrvOGS5HWZ9r2ZcWttcsjGoIgDJCIKFYPMGQOcfaOfy2tqUUCsFtQdhR90uOO77tGP098+v31HHHtu+XTeFW5eP48qua10MdhMBJ1uJ3Dhe04er20QGvKrxeybYvifCIMrTZprTe8/FqbSCMEDjBF7yl+K2d1a9nXX82H8dnbLPiev48uH9dkBlHNfhECGT8KKag0I5yRY326PjH8e7AAX5Iv2+x1D38viBz9/q54nXPa1XcqWO6qrTP1jZzLOu2Og4FhMABlkIrrRMr6FYd3OLuzrO9vru3L7RBaT33OJV8DiFwgKXD1Fqnl7v3xfr6ufVGas8ZMSdwgC8yX3TogwBoixAAxBECBzEawGoIAUAcIdAZ97D10JZ1EAKAOEIAU2MUcB0hcAKTg/WU2pIhf3uEAKZEANdDCJzEaACrIAQqs4QDQ1ub1K0Atwh1EQKAOEIAEEcIXMC8QH/cCtRHCADiCIGLZr4izXZVZRTQBiHQQOo2gdsGjIgQwJC46vdDCFTCVR6zIgQwBUYG7RACFVCYmBkhUBG3BHXsr/qMAtoiBABxhEAnXM0wKkKgkv3QFXUQnu0RAoA4QgDDYhTQByFQEbcEmBEh0AiBcA5X//4IAUAcIYAhMSLohxCojKLFbAiBRmaZCxghtFLzJwRqH4QAII4QaGB/BeP+FiMjBDAkArMfQgAQRwhgOIwC+iIEGqGQMQtCoIc/k7xfCEmP76fXz6jo8Tfe8b9/jdPc7l2LUc7+1l6//+0MFdkXIdBIKgScUYLg7hCYoY0UcDsAiCMEGshd4YDREAINMJQtKwUlQdoPIYBblIKSIO2HEOiM4sZoeHegofdXY/88huz8I7xFGBv2E5R9EQKNzPDNwZE+J+DM0GYr4nZA1HuUAnmEACCOEADEMSfQwB33tkcn2Kz76Lbba6KOOYF7EAINnC3msx0u98Ga1PZK+5jaZstAIATuQQhUdrSQz3TgvSPbsHTuGvt0FkHQH3MCk/OdJsU9/l4ynbsm9zqxBWMiBCr4KHT3B0SeS43C/+jAiaWW9zYL+7wdl183v+oPV9sDbRACnYUdqNgpDH+RqDRsdo/7xeT1hz2Sdo9/HM9rucLvJ4HRDyHQWLaDFDqcu/8OO3FsqcW6zXC96PqF4Iq2w8s2ynCd/7UN/zuB0BYh0Fis04RLDVtYvJbY70cdfd7HMRmfGwZjLhjQHiFws7MdNaXW9tx2/Lb8zzW2XTP8UAdvEVaQG67W6DizSbVHqS1ox3sQAhUki/d5z0/r2hEC9yAEGgnvcWlhG0LgHswJYAi5iUECoC1GAo354qaV0xg13YuRAIZBANyDEGjMF7a72uWGvKoYKd2PEOiAAo8jFMdACHRG4f8TtgMheS9CoBNX6OGtgTICYCyEALoiAMZDCHSmPBogAMZECKAL9VugkfFhoZtsnSLx3fvZPyHHdynmwkjgLoa/GrQcxWOeACEAiCMEAHGEACCOEBjQzDPpvAswH0JgUK4z+WV0M+0rfuItwgG4t9RibwvuO9VoZ2r0/YMNITCBsLONcLbo/GshBCby0fky77lf+bBR7u/8bYL/MIXKWQNzAhMZpdO5/SAA1kEITMbSAd2I4exSQudfDyGwIj6eiwMIgQW5OQE/Yji6QA8hAIgjBCbV6uvGue22ek3ci7cIAXGMBABxhAAgjhAAxBECgDhCABBHCADiCAFAHCEAiCMEAHGEACCOEADEEQKAOEIAEEcIAOIIAUAcIQCIIwQAcYQAII4QAMQRAoA4QgAQRwgA4ggBQBwhAIgjBABxhAAgjhAAxBECgDhCABBHCADiCAFAHCEAiCMEAHGEACCOEADEEQKAOEIAEEcIAOIIAUAcIQCIIwQAcYQAIO3r63/EaqTFzezA5AAAAABJRU5ErkJggg==;" parent="1" vertex="1">
          <mxGeometry x="810" y="-1" width="1050.68" height="834" as="geometry"/>
        </mxCell>
        <mxCell id="ogHlrttiE4OIKrvn-74Q-50" value="" style="shape=image;verticalLabelPosition=bottom;labelBackgroundColor=#ffffff;verticalAlign=top;aspect=fixed;imageAspect=0;image=data:image/png,iVBORw0KGgoAAAANSUhEUgAAAPkAAADaCAYAAABkd+QIAAAABHNCSVQICAgIfAhkiAAAAAFzUkdCAK7OHOkAAAAEZ0FNQQAAsY8L/GEFAAAACXBIWXMAAA9hAAAPYQGoP6dpAAAAOXRFWHRTb2Z0d2FyZQBtYXRwbG90bGliIHZlcnNpb24gMi4yLjMsIGh0dHA6Ly9tYXRwbG90bGliLm9yZy8jFEQFAAAAIXRFWHRDcmVhdGlvbiBUaW1lADIwMTk6MTI6MTggMjI6MDU6MTOmgjJLAAAJTUlEQVR4Xu3cDZLbKBSF0fTsNllQstweP8c4GCN+BMhw+U6VapxuWUKIqyfh9nx93/wAIOu/x38BiCLkgDhCDogj5IA4Qg6II+SAOEIOiCPkgDhCDogj5IA4Qg6II+SAOEIOiCPkgDhCDogj5IA4Qg6II+SAOEIOiCPkgDhCDogj5IA4Qg6II+SAOEIOiCPkgDhCDogj5IA4Qg6II+SAOEIOiCPkgDhCDogj5IA4Qg6II+SAOEIOiCPkgDhCDogj5IA4Qg6II+SAOEIOiCPkgDhCDogj5IA4Qg6II+SAOEIOiCPkgDhCDogj5IA4Qg6II+SAOEIOiCPkgDhCDogj5IA4Qg6II+SAOEIOiCPkgDhCDogj5IC4r++bx2sI+/rz9Xj16vsnp18dlXwDRwHHHgg5II6QA+IIeSNuhTE7Jt5OSAV7xoms1drrs7YzOdiGSn6zczX+mvDQ7Xy4xf83ztm2kqcGTa5ytLzXOdpGz6oVBjg80/7vR40CO87aY2rt3yv6diVU8gIWBn9JsQGWWy81iFO/axELsf+z3HHVuvfD41jc61HH5rtiH6sh5BEupLmwRv36l5xwO24ZLdxPqkqPCHpt0Fx770vmvfeLhb9+sODdliGvHYQWBH9JKV3vKiXt8NcZHZQwlG/78y6SUbnf482elTwzUPygxkJS+mwXbsctOW8Dv1AYmpJ9Of66Z/df5Pfrxv1+cUtKbH1/wbvtQt5rAFvQXdjd69LwlwgDe+ToruTMgPffc7afcu+799NtP4TyOtvMrr8NvqCiOD2DeiT3uGBtOAqLna3k+293KeEZTa0fO97nvgv7qLRvTW3/Wttr3pPrG7PbxWWLSh4OQjvJNnDccv+Z93q01H6e7bE2RlY7Cr/TYwDft5EIqmNtifVtT7XnpGT9XB+qkajkh1fv4Nl7/SN9DNBUAGPzDYXr+/1TUhFNrk9rK/FofsAVxkMJ7Ur+GNx2MlVO6MjjcJU5W+lu/VrapzMF3Phtfh7v7UIULkrkb9dVwl3Khc9fepstuLVe+uXgLkcp6MuHXO2qezX/YuAvO9jlOJcP+epV5ZTYc/fNUV9s2Ud40p54M7dAKF2x/eflq4/L7VuqPxNjR+XiuOVHaAo+GTSV/lQcFzFyfwxjV2b/ChyeyJWP1j+WTx3HDG1o9TImEh8vqlTyLf7iTSHoM4XLtWX1fjR2DLFbdqV5jG3+rNWsHPaZgjXTBafUyue+1RbP5E54YsMTP6ve7dztY8edA262quS+VU68386WNo6YRXZtW6HvzJ4jfbNK7gtPeDggZrPrAC0Ru4AR8H+2reS+lwEx0Wyr367WszSykpurR1HykaPiCzQ72LaS+2wgnB0MPZ9vbVv+4n/BpoSF7mhJia1vS86z327tfGt7By3baTmnaqjkgdTA8ive0XphVWxdz6QqbUkY7xJ3KEd/Jus7GiU17e7ZZ2f7a0dU8grPKpcYYKVqtvHcb2TxueoVW1Ji69vii+3bllKlx5ta78x+Qcin0DJoj0IZOqpuqapXuu0jhHEOhLxCyYC3SvSsOJnq5dbL8cMWLjUs0PdQ25d23OtCsX3bklNyjM8+y1X72yNH6X7xDyEvVBwI//m28FlXddAWH5vrp0x/lZyDmgvXLph4S3AVKOyhVMUJB1npujXbbGXH1eus9z6+qr59rMoITqOST+IoyL0D3tun2k3Ay1HJM3KD6V557Bk304s9q2eLGcJR0ob7OvYMfnCxmOE4VkHIM3KDqXSw2Xoz9PQM4ShpQ69+B7frWW4QuUEFrIaQYzpU8b4IOSCOkF+AW/1XPR6BqOLlCDkgjpAXSFWeHlUJ5ejneoQcEEfIC1GxP8/1Pc/jdQg5II6QD0b1qUN/9UfIAXGEHEugwp9HyCscTb4d/Rx9EPA2hBzTIMxjEPJKVG2shpBvhEq5J0KOqXFhakfIAXGEHNOiivdByE+onXxjkOKTCPlAzMBjBoQcEEfIT+IWvK/w+Zvn8X4IOSCOkDfiubs/qnhfhHwQBipmQcgb+M+P4bMkynFBHIuQA+IIOaZCVe+PkAPiCDmmQRUfg5A3YsINsyPkgDhC3kF4e0lVx0wIOabC83h/hBwfxV3PeIR8IKrSsVjf0F9jEHJAHCHvhCqEWRFyQNzX983jNRp8/YnPIH3/nKd7Z/uLMn/SjVE4DiHv5CjkZpagzxLyFS6ISrhdx6VSF0OMQcgBcYQc06DKj0HIMQ2eyccg5IA4Ztc78Weu7bZzxqrE7PqeCHkns30GHTNjG1fot9Vxu94BAT/Ptce1D/0RckAct+uNzlbIs8/tZ59nZ77bWOFOaGWEvFHNAO0x4XS0DZPaTkk7PzUhRsjHIuQn3QPx62/Xlfbg2YD6ardRGtzUdk1J+0r3FUPQx+GZvIINYrfc/b7915ZBbOCHS8rb+pngXmWWduyKkHcQG8S1gbPfh+8ZqXZf4frh0spV8B7bwitC3kl20D9u7Q9Ffm8DP1xSatbtjXDOi5AXqr3lDAOXC13t+q1q9xWuHy45qYvg/S7G+vfx+OP+/fw5mhDyQrnJo9pB31vJ5NZItcccCzvGYHa9Qqqq1IbMtjU6mD3bW6Jmfy8Bz0xefvoCtjpCXuFwEN+ep+nF81IXB0PI2xDyk1wldhWJXjyPkI/FM/lJydtPYCKEvJFfwQn6SYmPF6ni7bhd78QPOD1ajn4bj0qOKRDwcajknTERV4YKfh0q+SA8n5ch4OMR8s78QUvQ31mf0C/XIuQDUJ3K0E/XIOSDUbX+8fuCgF+HibfB3MDevZfph8+hkmM47mY+i0p+gfsgj3zTaoe/5uIW/fMI+QVqvoK5Mr6lNydu1zHewP/ZJfIIOSCOkKOL3HfC8TmE/MNUZp75Sui8CPkELOgrh3319qsj5Bc4qnL2c3/WebWwEO418BHaRMLAzHpmVmkn/iLkE4qF6Ghiq+ezcGofBHtd3K5PyALkhyh1S9xrVju1nfB3BHwthHxiYdg/ybWFgK+HkC8gFyyr9K0LdBFyQBwhF+DfSp9doIuQA+II+eJ6fYSW2k7Pj+lwPT4nB8RRyQFxhBwQR8gBcYQcEEfIAXGEHBBHyAFxhBwQR8gBcYQcEEfIAXGEHBBHyAFxhBwQR8gBcYQcEEfIAXGEHBBHyAFxhBwQR8gBcYQcEEfIAWk/fvwPMX2NGK7ADRIAAAAASUVORK5CYII=;" parent="1" vertex="1">
          <mxGeometry x="1740" y="-120" width="996.56" height="872.49" as="geometry"/>
        </mxCell>
        <mxCell id="ogHlrttiE4OIKrvn-74Q-51" value="" style="shape=ellipse;fillColor=#0066CC;strokeColor=none;html=1" parent="1" vertex="1">
          <mxGeometry x="1020" y="190" width="30" height="30" as="geometry"/>
        </mxCell>
        <mxCell id="ogHlrttiE4OIKrvn-74Q-52" value="" style="shape=ellipse;fillColor=#0066CC;strokeColor=none;html=1" parent="1" vertex="1">
          <mxGeometry x="1070" y="160" width="30" height="30" as="geometry"/>
        </mxCell>
        <mxCell id="ogHlrttiE4OIKrvn-74Q-53" value="" style="shape=ellipse;fillColor=#0066CC;strokeColor=none;html=1" parent="1" vertex="1">
          <mxGeometry x="1100" y="240" width="30" height="30" as="geometry"/>
        </mxCell>
        <mxCell id="ogHlrttiE4OIKrvn-74Q-54" value="" style="shape=ellipse;fillColor=#0066CC;strokeColor=none;html=1" parent="1" vertex="1">
          <mxGeometry x="1140" y="150" width="30" height="30" as="geometry"/>
        </mxCell>
        <mxCell id="ogHlrttiE4OIKrvn-74Q-55" value="" style="shape=ellipse;fillColor=#0066CC;strokeColor=none;html=1" parent="1" vertex="1">
          <mxGeometry x="1210" y="160" width="30" height="30" as="geometry"/>
        </mxCell>
        <mxCell id="ogHlrttiE4OIKrvn-74Q-56" value="" style="shape=ellipse;fillColor=#0066CC;strokeColor=none;html=1" parent="1" vertex="1">
          <mxGeometry x="1140" y="250" width="30" height="30" as="geometry"/>
        </mxCell>
        <mxCell id="ogHlrttiE4OIKrvn-74Q-57" value="" style="shape=ellipse;fillColor=#0066CC;strokeColor=none;html=1" parent="1" vertex="1">
          <mxGeometry x="1180" y="250" width="30" height="30" as="geometry"/>
        </mxCell>
        <mxCell id="ogHlrttiE4OIKrvn-74Q-58" value="" style="shape=ellipse;fillColor=#0066CC;strokeColor=none;html=1" parent="1" vertex="1">
          <mxGeometry x="1225.47" y="250" width="30" height="30" as="geometry"/>
        </mxCell>
        <mxCell id="ogHlrttiE4OIKrvn-74Q-59" value="" style="shape=ellipse;fillColor=#0066CC;strokeColor=none;html=1" parent="1" vertex="1">
          <mxGeometry x="1270" y="180" width="30" height="30" as="geometry"/>
        </mxCell>
        <mxCell id="ogHlrttiE4OIKrvn-74Q-60" value="" style="shape=ellipse;fillColor=#0066CC;strokeColor=none;html=1" parent="1" vertex="1">
          <mxGeometry x="1320.34" y="120" width="30" height="30" as="geometry"/>
        </mxCell>
        <mxCell id="ogHlrttiE4OIKrvn-74Q-61" value="" style="shape=ellipse;fillColor=#0066CC;strokeColor=none;html=1" parent="1" vertex="1">
          <mxGeometry x="1320.34" y="180" width="30" height="30" as="geometry"/>
        </mxCell>
        <mxCell id="ogHlrttiE4OIKrvn-74Q-62" value="" style="shape=ellipse;fillColor=#0066CC;strokeColor=none;html=1" parent="1" vertex="1">
          <mxGeometry x="1320.34" y="230" width="30" height="30" as="geometry"/>
        </mxCell>
        <mxCell id="ogHlrttiE4OIKrvn-74Q-63" value="" style="shape=ellipse;fillColor=#0066CC;strokeColor=none;html=1" parent="1" vertex="1">
          <mxGeometry x="1370" y="180" width="30" height="30" as="geometry"/>
        </mxCell>
        <mxCell id="ogHlrttiE4OIKrvn-74Q-64" value="" style="shape=ellipse;fillColor=#0066CC;strokeColor=none;html=1" parent="1" vertex="1">
          <mxGeometry x="1430" y="160" width="30" height="30" as="geometry"/>
        </mxCell>
        <mxCell id="ogHlrttiE4OIKrvn-74Q-65" value="" style="shape=ellipse;fillColor=#0066CC;strokeColor=none;html=1" parent="1" vertex="1">
          <mxGeometry x="1500" y="150" width="30" height="30" as="geometry"/>
        </mxCell>
        <mxCell id="ogHlrttiE4OIKrvn-74Q-66" value="" style="shape=ellipse;fillColor=#0066CC;strokeColor=none;html=1" parent="1" vertex="1">
          <mxGeometry x="1560" y="150" width="30" height="30" as="geometry"/>
        </mxCell>
        <mxCell id="ogHlrttiE4OIKrvn-74Q-67" value="" style="shape=ellipse;fillColor=#0066CC;strokeColor=none;html=1" parent="1" vertex="1">
          <mxGeometry x="1610" y="190" width="30" height="30" as="geometry"/>
        </mxCell>
        <mxCell id="ogHlrttiE4OIKrvn-74Q-68" value="" style="shape=ellipse;fillColor=#0066CC;strokeColor=none;html=1" parent="1" vertex="1">
          <mxGeometry x="1530" y="240" width="30" height="30" as="geometry"/>
        </mxCell>
        <mxCell id="ogHlrttiE4OIKrvn-74Q-69" value="" style="shape=ellipse;fillColor=#0066CC;strokeColor=none;html=1" parent="1" vertex="1">
          <mxGeometry x="1490" y="250" width="30" height="30" as="geometry"/>
        </mxCell>
        <mxCell id="ogHlrttiE4OIKrvn-74Q-70" value="" style="shape=ellipse;fillColor=#0066CC;strokeColor=none;html=1" parent="1" vertex="1">
          <mxGeometry x="1450" y="250" width="30" height="30" as="geometry"/>
        </mxCell>
        <mxCell id="ogHlrttiE4OIKrvn-74Q-71" value="" style="shape=ellipse;fillColor=#0066CC;strokeColor=none;html=1" parent="1" vertex="1">
          <mxGeometry x="1410" y="250" width="30" height="30" as="geometry"/>
        </mxCell>
        <mxCell id="ogHlrttiE4OIKrvn-74Q-72" value="" style="shape=ellipse;fillColor=#0066CC;strokeColor=none;html=1" parent="1" vertex="1">
          <mxGeometry x="1460" y="450" width="30" height="30" as="geometry"/>
        </mxCell>
        <mxCell id="ogHlrttiE4OIKrvn-74Q-73" value="" style="shape=ellipse;fillColor=#0066CC;strokeColor=none;html=1" parent="1" vertex="1">
          <mxGeometry x="1470" y="520" width="30" height="30" as="geometry"/>
        </mxCell>
        <mxCell id="ogHlrttiE4OIKrvn-74Q-74" value="" style="shape=ellipse;fillColor=#0066CC;strokeColor=none;html=1" parent="1" vertex="1">
          <mxGeometry x="1160" y="450" width="30" height="30" as="geometry"/>
        </mxCell>
        <mxCell id="ogHlrttiE4OIKrvn-74Q-75" value="" style="shape=ellipse;fillColor=#0066CC;strokeColor=none;html=1" parent="1" vertex="1">
          <mxGeometry x="1420" y="510" width="30" height="30" as="geometry"/>
        </mxCell>
        <mxCell id="ogHlrttiE4OIKrvn-74Q-76" value="" style="shape=ellipse;fillColor=#0066CC;strokeColor=none;html=1" parent="1" vertex="1">
          <mxGeometry x="1420" y="590" width="30" height="30" as="geometry"/>
        </mxCell>
        <mxCell id="ogHlrttiE4OIKrvn-74Q-77" value="" style="shape=ellipse;fillColor=#0066CC;strokeColor=none;html=1" parent="1" vertex="1">
          <mxGeometry x="1350.34" y="500" width="30" height="30" as="geometry"/>
        </mxCell>
        <mxCell id="ogHlrttiE4OIKrvn-74Q-78" value="" style="shape=ellipse;fillColor=#0066CC;strokeColor=none;html=1" parent="1" vertex="1">
          <mxGeometry x="1310" y="510" width="30" height="30" as="geometry"/>
        </mxCell>
        <mxCell id="ogHlrttiE4OIKrvn-74Q-79" value="" style="shape=ellipse;fillColor=#0066CC;strokeColor=none;html=1" parent="1" vertex="1">
          <mxGeometry x="1270" y="500" width="30" height="30" as="geometry"/>
        </mxCell>
        <mxCell id="ogHlrttiE4OIKrvn-74Q-80" value="" style="shape=ellipse;fillColor=#0066CC;strokeColor=none;html=1" parent="1" vertex="1">
          <mxGeometry x="1200" y="510" width="30" height="30" as="geometry"/>
        </mxCell>
        <mxCell id="ogHlrttiE4OIKrvn-74Q-81" value="" style="shape=ellipse;fillColor=#0066CC;strokeColor=none;html=1" parent="1" vertex="1">
          <mxGeometry x="1140" y="520" width="30" height="30" as="geometry"/>
        </mxCell>
        <mxCell id="ogHlrttiE4OIKrvn-74Q-82" value="" style="shape=ellipse;fillColor=#0066CC;strokeColor=none;html=1" parent="1" vertex="1">
          <mxGeometry x="1195.47" y="590" width="30" height="30" as="geometry"/>
        </mxCell>
        <mxCell id="ogHlrttiE4OIKrvn-74Q-83" value="" style="shape=ellipse;fillColor=#0066CC;strokeColor=none;html=1" parent="1" vertex="1">
          <mxGeometry x="1260" y="630" width="30" height="30" as="geometry"/>
        </mxCell>
        <mxCell id="ogHlrttiE4OIKrvn-74Q-84" value="" style="shape=ellipse;fillColor=#0066CC;strokeColor=none;html=1" parent="1" vertex="1">
          <mxGeometry x="1350.34" y="630" width="30" height="30" as="geometry"/>
        </mxCell>
        <mxCell id="ogHlrttiE4OIKrvn-74Q-85" value="" style="shape=ellipse;fillColor=#0066CC;strokeColor=none;html=1" parent="1" vertex="1">
          <mxGeometry x="1930" y="200" width="30" height="30" as="geometry"/>
        </mxCell>
        <mxCell id="ogHlrttiE4OIKrvn-74Q-86" value="" style="shape=ellipse;fillColor=#0066CC;strokeColor=none;html=1" parent="1" vertex="1">
          <mxGeometry x="1980" y="170" width="30" height="30" as="geometry"/>
        </mxCell>
        <mxCell id="ogHlrttiE4OIKrvn-74Q-87" value="" style="shape=ellipse;fillColor=#0066CC;strokeColor=none;html=1" parent="1" vertex="1">
          <mxGeometry x="2010" y="250" width="30" height="30" as="geometry"/>
        </mxCell>
        <mxCell id="ogHlrttiE4OIKrvn-74Q-88" value="" style="shape=ellipse;fillColor=#0066CC;strokeColor=none;html=1" parent="1" vertex="1">
          <mxGeometry x="2052" y="260" width="30" height="30" as="geometry"/>
        </mxCell>
        <mxCell id="ogHlrttiE4OIKrvn-74Q-89" value="" style="shape=ellipse;fillColor=#0066CC;strokeColor=none;html=1" parent="1" vertex="1">
          <mxGeometry x="2130" y="260" width="30" height="30" as="geometry"/>
        </mxCell>
        <mxCell id="ogHlrttiE4OIKrvn-74Q-90" value="" style="shape=ellipse;fillColor=#0066CC;strokeColor=none;html=1" parent="1" vertex="1">
          <mxGeometry x="2090" y="260" width="30" height="30" as="geometry"/>
        </mxCell>
        <mxCell id="ogHlrttiE4OIKrvn-74Q-91" value="" style="shape=ellipse;fillColor=#0066CC;strokeColor=none;html=1" parent="1" vertex="1">
          <mxGeometry x="2052" y="160" width="30" height="30" as="geometry"/>
        </mxCell>
        <mxCell id="ogHlrttiE4OIKrvn-74Q-92" value="" style="shape=ellipse;fillColor=#0066CC;strokeColor=none;html=1" parent="1" vertex="1">
          <mxGeometry x="2110" y="170" width="30" height="30" as="geometry"/>
        </mxCell>
        <mxCell id="ogHlrttiE4OIKrvn-74Q-93" value="" style="shape=ellipse;fillColor=#0066CC;strokeColor=none;html=1" parent="1" vertex="1">
          <mxGeometry x="2170" y="190" width="30" height="30" as="geometry"/>
        </mxCell>
        <mxCell id="ogHlrttiE4OIKrvn-74Q-94" value="" style="shape=ellipse;fillColor=#0066CC;strokeColor=none;html=1" parent="1" vertex="1">
          <mxGeometry x="2223.28" y="140" width="30" height="30" as="geometry"/>
        </mxCell>
        <mxCell id="ogHlrttiE4OIKrvn-74Q-95" value="" style="shape=ellipse;fillColor=#0066CC;strokeColor=none;html=1" parent="1" vertex="1">
          <mxGeometry x="2223.28" y="190" width="30" height="30" as="geometry"/>
        </mxCell>
        <mxCell id="ogHlrttiE4OIKrvn-74Q-96" value="" style="shape=ellipse;fillColor=#0066CC;strokeColor=none;html=1" parent="1" vertex="1">
          <mxGeometry x="2223.28" y="240" width="30" height="30" as="geometry"/>
        </mxCell>
        <mxCell id="ogHlrttiE4OIKrvn-74Q-97" value="" style="shape=ellipse;fillColor=#0066CC;strokeColor=none;html=1" parent="1" vertex="1">
          <mxGeometry x="2280" y="190" width="30" height="30" as="geometry"/>
        </mxCell>
        <mxCell id="ogHlrttiE4OIKrvn-74Q-98" value="" style="shape=ellipse;fillColor=#0066CC;strokeColor=none;html=1" parent="1" vertex="1">
          <mxGeometry x="2320" y="260" width="30" height="30" as="geometry"/>
        </mxCell>
        <mxCell id="ogHlrttiE4OIKrvn-74Q-99" value="" style="shape=ellipse;fillColor=#0066CC;strokeColor=none;html=1" parent="1" vertex="1">
          <mxGeometry x="2340" y="170" width="30" height="30" as="geometry"/>
        </mxCell>
        <mxCell id="ogHlrttiE4OIKrvn-74Q-100" value="" style="shape=ellipse;fillColor=#0066CC;strokeColor=none;html=1" parent="1" vertex="1">
          <mxGeometry x="2400" y="160" width="30" height="30" as="geometry"/>
        </mxCell>
        <mxCell id="ogHlrttiE4OIKrvn-74Q-101" value="" style="shape=ellipse;fillColor=#0066CC;strokeColor=none;html=1" parent="1" vertex="1">
          <mxGeometry x="2460" y="170" width="30" height="30" as="geometry"/>
        </mxCell>
        <mxCell id="ogHlrttiE4OIKrvn-74Q-102" value="" style="shape=ellipse;fillColor=#0066CC;strokeColor=none;html=1" parent="1" vertex="1">
          <mxGeometry x="2510" y="200" width="30" height="30" as="geometry"/>
        </mxCell>
        <mxCell id="ogHlrttiE4OIKrvn-74Q-103" value="" style="shape=ellipse;fillColor=#0066CC;strokeColor=none;html=1" parent="1" vertex="1">
          <mxGeometry x="2360" y="260" width="30" height="30" as="geometry"/>
        </mxCell>
        <mxCell id="ogHlrttiE4OIKrvn-74Q-104" value="" style="shape=ellipse;fillColor=#0066CC;strokeColor=none;html=1" parent="1" vertex="1">
          <mxGeometry x="2400" y="260" width="30" height="30" as="geometry"/>
        </mxCell>
        <mxCell id="ogHlrttiE4OIKrvn-74Q-105" value="" style="shape=ellipse;fillColor=#0066CC;strokeColor=none;html=1" parent="1" vertex="1">
          <mxGeometry x="2440" y="250" width="30" height="30" as="geometry"/>
        </mxCell>
        <mxCell id="ogHlrttiE4OIKrvn-74Q-106" value="" style="shape=ellipse;fillColor=#0066CC;strokeColor=none;html=1" parent="1" vertex="1">
          <mxGeometry x="2060" y="460" width="30" height="30" as="geometry"/>
        </mxCell>
        <mxCell id="ogHlrttiE4OIKrvn-74Q-107" value="" style="shape=ellipse;fillColor=#0066CC;strokeColor=none;html=1" parent="1" vertex="1">
          <mxGeometry x="2040" y="510" width="30" height="30" as="geometry"/>
        </mxCell>
        <mxCell id="ogHlrttiE4OIKrvn-74Q-108" value="" style="shape=ellipse;fillColor=#0066CC;strokeColor=none;html=1" parent="1" vertex="1">
          <mxGeometry x="2090" y="590" width="30" height="30" as="geometry"/>
        </mxCell>
        <mxCell id="ogHlrttiE4OIKrvn-74Q-109" value="" style="shape=ellipse;fillColor=#0066CC;strokeColor=none;html=1" parent="1" vertex="1">
          <mxGeometry x="2160" y="620" width="30" height="30" as="geometry"/>
        </mxCell>
        <mxCell id="ogHlrttiE4OIKrvn-74Q-110" value="" style="shape=ellipse;fillColor=#0066CC;strokeColor=none;html=1" parent="1" vertex="1">
          <mxGeometry x="2260" y="620" width="30" height="30" as="geometry"/>
        </mxCell>
        <mxCell id="ogHlrttiE4OIKrvn-74Q-111" value="" style="shape=ellipse;fillColor=#0066CC;strokeColor=none;html=1" parent="1" vertex="1">
          <mxGeometry x="2330" y="590" width="30" height="30" as="geometry"/>
        </mxCell>
        <mxCell id="ogHlrttiE4OIKrvn-74Q-112" value="" style="shape=ellipse;fillColor=#0066CC;strokeColor=none;html=1" parent="1" vertex="1">
          <mxGeometry x="2380" y="520" width="30" height="30" as="geometry"/>
        </mxCell>
        <mxCell id="2NdfJpVR1MSzKtdrEYSF-1" value="" style="shape=ellipse;fillColor=#0066CC;strokeColor=none;html=1" vertex="1" parent="1">
          <mxGeometry x="2360" y="460" width="30" height="30" as="geometry"/>
        </mxCell>
        <mxCell id="2NdfJpVR1MSzKtdrEYSF-3" value="" style="shape=ellipse;fillColor=#0066CC;strokeColor=none;html=1" vertex="1" parent="1">
          <mxGeometry x="2100" y="500" width="30" height="30" as="geometry"/>
        </mxCell>
        <mxCell id="2NdfJpVR1MSzKtdrEYSF-4" value="" style="shape=ellipse;fillColor=#0066CC;strokeColor=none;html=1" vertex="1" parent="1">
          <mxGeometry x="2170" y="500" width="30" height="30" as="geometry"/>
        </mxCell>
        <mxCell id="2NdfJpVR1MSzKtdrEYSF-5" value="" style="shape=ellipse;fillColor=#0066CC;strokeColor=none;html=1" vertex="1" parent="1">
          <mxGeometry x="2220" y="510" width="30" height="30" as="geometry"/>
        </mxCell>
        <mxCell id="2NdfJpVR1MSzKtdrEYSF-6" value="" style="shape=ellipse;fillColor=#0066CC;strokeColor=none;html=1" vertex="1" parent="1">
          <mxGeometry x="2260" y="500" width="30" height="30" as="geometry"/>
        </mxCell>
        <mxCell id="2NdfJpVR1MSzKtdrEYSF-7" value="" style="shape=ellipse;fillColor=#0066CC;strokeColor=none;html=1" vertex="1" parent="1">
          <mxGeometry x="2320" y="510" width="30" height="30" as="geometry"/>
        </mxCell>
      </root>
    </mxGraphModel>
  </diagram>
</mxfile>
